<?xml version="1.0" standalone="no"?>
<!DOCTYPE svg PUBLIC "-//W3C//DTD SVG 20010904//EN"
 "http://www.w3.org/TR/2001/REC-SVG-20010904/DTD/svg10.dtd">
<svg version="1.0" xmlns="http://www.w3.org/2000/svg"
 width="50.000000pt" height="50.000000pt" viewBox="0 0 50.000000 50.000000"
 preserveAspectRatio="xMidYMid meet">

<g transform="translate(0.000000,50.000000) scale(0.100000,-0.100000)"
fill="#000000" stroke="none">
<path d="M214 476 c8 -6 16 -22 18 -36 3 -21 5 -19 9 10 4 31 2 35 -19 37 -19
1 -21 -1 -8 -11z"/>
<path d="M268 459 c3 -21 7 -27 13 -18 4 7 3 21 -2 31 -14 25 -16 23 -11 -13z"/>
<path d="M159 442 c-43 -21 -78 -89 -86 -166 -5 -52 -5 -55 16 -49 24 6 29 23
6 23 -8 0 -15 4 -15 8 0 5 20 9 45 9 44 0 44 0 23 -19 l-22 -18 25 2 c21 3 24
-1 21 -24 -1 -16 1 -28 6 -28 12 0 2 -63 -12 -72 -8 -5 -7 -8 2 -8 6 0 12 -8
12 -17 0 -14 6 -11 25 12 30 37 31 45 5 38 -11 -3 -20 0 -20 6 0 6 6 11 13 11
9 0 9 2 0 8 -8 5 -9 13 -3 22 5 8 6 26 3 39 -5 20 -3 23 11 18 9 -4 16 -4 16
-1 0 2 -11 9 -25 14 -17 6 -25 17 -25 32 0 21 -5 23 -42 22 -24 -1 -31 1 -15
3 38 6 36 51 -3 66 -11 4 -9 6 6 6 11 1 25 -4 30 -9 8 -8 15 -6 24 5 7 8 22
15 34 16 l21 0 -22 11 c-12 6 -24 17 -28 26 -4 12 -3 13 10 2 12 -10 15 -10
15 3 0 25 -14 27 -51 9z m16 -41 c-1 -9 -5 -15 -8 -13 -4 1 -17 2 -29 3 -22 1
-22 1 2 9 14 4 19 8 12 9 -10 1 -10 4 0 15 15 16 27 3 23 -23z m-45 -51 c0 -5
-4 -10 -9 -10 -6 0 -13 5 -16 10 -3 6 1 10 9 10 9 0 16 -4 16 -10z m10 -26 c0
-2 -12 -4 -26 -4 -14 0 -23 4 -20 9 6 8 46 4 46 -5z m13 -41 c-13 -2 -35 -2
-50 0 -16 2 -5 4 22 4 28 0 40 -2 28 -4z"/>
<path d="M285 423 l-18 -28 29 25 28 25 -17 -27 c-10 -16 -13 -29 -7 -33 6 -3
10 -11 10 -17 0 -7 -5 -6 -15 2 -19 16 -45 6 -45 -17 1 -17 1 -17 11 0 6 9 15
15 20 12 5 -4 7 -11 4 -16 -4 -5 -1 -9 4 -9 23 0 11 -58 -15 -79 -24 -19 -25
-22 -10 -36 18 -19 20 -31 6 -40 -5 -3 -10 3 -10 15 0 12 -4 19 -9 15 -11 -6
-9 -44 3 -63 4 -7 2 -12 -4 -12 -8 0 -8 -6 0 -20 9 -17 13 -18 24 -7 8 7 16
22 18 33 3 13 11 18 28 17 14 -1 19 1 12 3 -14 7 -6 24 12 24 8 0 11 -12 8
-36 -3 -24 -1 -34 6 -30 5 3 8 16 5 29 -4 18 -3 19 6 7 9 -12 11 -10 11 12 0
17 5 27 12 25 16 -3 22 35 13 90 -6 41 -8 43 -38 42 -30 -2 -31 -2 -4 -6 30
-5 37 -23 10 -24 -15 0 -15 -2 2 -9 16 -7 13 -9 -17 -9 -37 -1 -51 12 -25 22
7 3 5 6 -5 6 -20 1 -26 45 -8 56 6 4 8 10 5 15 -3 4 3 14 13 21 16 13 16 13 2
-5 -14 -18 -13 -19 5 -13 20 7 20 7 1 -8 -19 -14 -19 -15 10 -16 29 -1 29 -1
4 -9 l-25 -8 28 -1 c31 -1 33 8 12 49 -14 27 -51 60 -66 60 -4 0 -15 -12 -24
-27z m103 -160 c-10 -2 -18 -13 -18 -23 0 -13 5 -17 15 -14 8 4 15 1 15 -4 0
-6 -17 -14 -37 -18 -21 -4 -46 -13 -55 -22 -12 -10 -18 -11 -18 -3 0 7 16 19
35 27 41 17 50 54 13 53 -22 0 -22 -1 -3 -9 16 -7 17 -9 3 -9 -19 -1 -31 13
-21 23 3 3 25 5 47 5 23 -1 33 -3 24 -6z m-93 -43 c3 -5 1 -10 -4 -10 -6 0
-11 5 -11 10 0 6 2 10 4 10 3 0 8 -4 11 -10z m48 3 c-7 -2 -19 -2 -25 0 -7 3
-2 5 12 5 14 0 19 -2 13 -5z"/>
<path d="M175 350 c-18 -19 -17 -20 1 -20 11 0 25 9 32 20 10 16 10 20 -1 20
-8 0 -22 -9 -32 -20z"/>
<path d="M83 165 c5 -47 37 -109 45 -87 2 7 -3 21 -11 30 -8 9 -18 28 -22 42
-7 22 -6 23 9 11 14 -12 16 -10 16 16 0 22 -5 29 -21 30 -20 2 -21 -2 -16 -42z"/>
<path d="M401 152 c0 -13 -15 -37 -31 -54 -24 -23 -37 -29 -60 -26 -17 3 -30
0 -30 -6 0 -6 -5 -5 -12 2 -7 7 -21 12 -32 11 -18 -1 -18 -2 4 -10 23 -8 22
-8 -8 -5 -18 1 -35 -1 -38 -6 -8 -12 107 -8 145 6 43 16 74 55 68 87 l-4 24
-2 -23z"/>
<path d="M315 100 c3 -5 8 -10 11 -10 2 0 4 5 4 10 0 6 -5 10 -11 10 -5 0 -7
-4 -4 -10z"/>
</g>
</svg>
